<svg width="106" height="106" viewBox="0 0 106 106" fill="none" xmlns="http://www.w3.org/2000/svg">
<g filter="url(#filter0_d)">
<path d="M46.7283 70.582C32.8782 70.582 25.9531 63.657 25.9531 49.8068V36.6856C25.9531 22.8355 32.8782 15.9104 46.7283 15.9104H59.8495C73.6997 15.9104 80.6248 22.8355 80.6248 36.6856V49.8068C80.6248 63.657 73.6997 70.582 59.8495 70.582H46.7283Z" fill="#FFE605"/>
</g>
<g filter="url(#filter1_d)">
<path d="M41 42.8334C41 37.2982 41 34.5306 42.698 32.7936C42.7295 32.7614 42.7614 32.7295 42.7936 32.698C44.5306 31 47.2982 31 52.8334 31V31C58.3685 31 61.1361 31 62.8731 32.698C62.9053 32.7295 62.9372 32.7614 62.9687 32.7936C64.6667 34.5306 64.6667 37.2982 64.6667 42.8334V42.8334C64.6667 48.3685 64.6667 51.1361 62.9687 52.8731C62.9372 52.9053 62.9053 52.9372 62.8731 52.9687C61.1361 54.6667 58.3685 54.6667 52.8334 54.6667V54.6667C47.2982 54.6667 44.5306 54.6667 42.7936 52.9687C42.7614 52.9372 42.7295 52.9053 42.698 52.8731C41 51.1361 41 48.3685 41 42.8334V42.8334Z" fill="white"/>
</g>
<g filter="url(#filter2_d)">
<path fill-rule="evenodd" clip-rule="evenodd" d="M52.7586 30H52.9081C55.6123 30 57.7424 30 59.409 30.2209C61.1188 30.4476 62.4875 30.9227 63.5721 31.983C63.6098 32.0197 63.647 32.057 63.6838 32.0946C64.744 33.1792 65.2191 34.5479 65.4458 36.2577C65.6667 37.9243 65.6667 40.0544 65.6667 42.7587V42.908C65.6667 45.6123 65.6667 47.7424 65.4458 49.409C65.2191 51.1188 64.744 52.4875 63.6838 53.5721C63.647 53.6098 63.6098 53.647 63.5721 53.6838C62.4875 54.744 61.1188 55.2191 59.409 55.4458C57.7424 55.6667 55.6123 55.6667 52.908 55.6667H52.7587C50.0544 55.6667 47.9243 55.6667 46.2577 55.4458C44.5479 55.2191 43.1792 54.744 42.0946 53.6838C42.057 53.647 42.0197 53.6098 41.983 53.5721C40.9227 52.4875 40.4476 51.1188 40.2209 49.409C40 47.7424 40 45.6123 40 42.9081V42.7586C40 40.0544 40 37.9243 40.2209 36.2577C40.4476 34.5479 40.9227 33.1792 41.983 32.0946C42.0197 32.057 42.057 32.0197 42.0946 31.983C43.1792 30.9227 44.5479 30.4476 46.2577 30.2209C47.9243 30 50.0544 30 52.7586 30ZM46.5206 32.2036C45.0286 32.4014 44.1451 32.7753 43.4927 33.4131C43.4658 33.4393 43.4393 33.4658 43.4131 33.4927C42.7753 34.1451 42.4014 35.0286 42.2036 36.5206C42.0021 38.0405 42 40.0379 42 42.8334C42 45.6288 42.0021 47.6262 42.2036 49.1461C42.4014 50.6381 42.7753 51.5216 43.4131 52.174C43.4393 52.2009 43.4658 52.2274 43.4927 52.2536C44.1451 52.8914 45.0286 53.2653 46.5206 53.4631C48.0405 53.6646 50.0379 53.6667 52.8334 53.6667C55.6288 53.6667 57.6262 53.6646 59.1461 53.4631C60.6381 53.2653 61.5216 52.8914 62.174 52.2536C62.2009 52.2274 62.2274 52.2009 62.2536 52.174C62.8914 51.5216 63.2653 50.6381 63.4631 49.1461C63.6646 47.6262 63.6667 45.6288 63.6667 42.8334C63.6667 40.0379 63.6646 38.0405 63.4631 36.5206C63.2653 35.0286 62.8914 34.1451 62.2536 33.4927C62.2274 33.4658 62.2009 33.4393 62.174 33.4131C61.5216 32.7753 60.6381 32.4014 59.1461 32.2036C57.6262 32.0021 55.6288 32 52.8334 32C50.0379 32 48.0405 32.0021 46.5206 32.2036Z" fill="black"/>
</g>
<defs>
<filter id="filter0_d" x="0.953125" y="0.9104" width="104.672" height="104.672" filterUnits="userSpaceOnUse" color-interpolation-filters="sRGB">
<feFlood flood-opacity="0" result="BackgroundImageFix"/>
<feColorMatrix in="SourceAlpha" type="matrix" values="0 0 0 0 0 0 0 0 0 0 0 0 0 0 0 0 0 0 127 0"/>
<feOffset dy="10"/>
<feGaussianBlur stdDeviation="12.5"/>
<feColorMatrix type="matrix" values="0 0 0 0 0.129167 0 0 0 0 0.129167 0 0 0 0 0.129167 0 0 0 0.07 0"/>
<feBlend mode="normal" in2="BackgroundImageFix" result="effect1_dropShadow"/>
<feBlend mode="normal" in="SourceGraphic" in2="effect1_dropShadow" result="shape"/>
</filter>
<filter id="filter1_d" x="39.0355" y="30.5389" width="27.5958" height="27.5958" filterUnits="userSpaceOnUse" color-interpolation-filters="sRGB">
<feFlood flood-opacity="0" result="BackgroundImageFix"/>
<feColorMatrix in="SourceAlpha" type="matrix" values="0 0 0 0 0 0 0 0 0 0 0 0 0 0 0 0 0 0 127 0"/>
<feOffset dy="1.50346"/>
<feGaussianBlur stdDeviation="0.982263"/>
<feColorMatrix type="matrix" values="0 0 0 0 0.733333 0 0 0 0 0.697194 0 0 0 0 0.647778 0 0 0 0.15 0"/>
<feBlend mode="normal" in2="BackgroundImageFix" result="effect1_dropShadow"/>
<feBlend mode="normal" in="SourceGraphic" in2="effect1_dropShadow" result="shape"/>
</filter>
<filter id="filter2_d" x="38.0355" y="29.5389" width="29.5958" height="29.5958" filterUnits="userSpaceOnUse" color-interpolation-filters="sRGB">
<feFlood flood-opacity="0" result="BackgroundImageFix"/>
<feColorMatrix in="SourceAlpha" type="matrix" values="0 0 0 0 0 0 0 0 0 0 0 0 0 0 0 0 0 0 127 0"/>
<feOffset dy="1.50346"/>
<feGaussianBlur stdDeviation="0.982263"/>
<feColorMatrix type="matrix" values="0 0 0 0 0.733333 0 0 0 0 0.697194 0 0 0 0 0.647778 0 0 0 0.15 0"/>
<feBlend mode="normal" in2="BackgroundImageFix" result="effect1_dropShadow"/>
<feBlend mode="normal" in="SourceGraphic" in2="effect1_dropShadow" result="shape"/>
</filter>
</defs>
</svg>
