<?xml version="1.0" standalone="no"?>
<!DOCTYPE svg PUBLIC "-//W3C//DTD SVG 20010904//EN"
 "http://www.w3.org/TR/2001/REC-SVG-20010904/DTD/svg10.dtd">
<svg version="1.0" xmlns="http://www.w3.org/2000/svg"
 width="700.000000pt" height="700.000000pt" viewBox="0 0 700.000000 700.000000"
 preserveAspectRatio="xMidYMid meet">
<metadata>
Created by potrace 1.11, written by Peter Selinger 2001-2013
</metadata>
<g transform="translate(0.000000,700.000000) scale(0.100000,-0.100000)"
fill="#000000" stroke="none">
<path d="M2925 5180 c-451 -15 -668 -75 -839 -232 -114 -104 -186 -232 -227
-406 -42 -176 -50 -294 -56 -832 -11 -1063 29 -1303 262 -1535 171 -172 348
-231 768 -256 234 -14 1238 -6 1382 10 440 51 677 213 784 537 66 200 81 397
81 1079 0 505 -8 725 -31 870 -34 220 -98 369 -209 488 -137 147 -306 223
-570 257 -196 25 -862 35 -1345 20z m965 -250 c294 -9 435 -24 535 -57 241
-77 344 -228 387 -564 19 -147 19 -1370 0 -1519 -52 -416 -197 -560 -612 -611
-55 -6 -322 -13 -631 -16 -852 -8 -1085 15 -1256 126 -146 94 -214 241 -245
532 -18 173 -18 1298 0 1454 21 175 40 254 83 342 84 174 222 257 489 294 173
24 796 33 1250 19z"/>
</g>
</svg>
